<?xml version="1.0" encoding="UTF-8"?>
<!DOCTYPE svg PUBLIC "-//W3C//DTD SVG 1.1//EN" "http://www.w3.org/Graphics/SVG/1.1/DTD/svg11.dtd">
<svg version="1.1" xmlns="http://www.w3.org/2000/svg" xmlns:xlink="http://www.w3.org/1999/xlink" x="0" y="0" width="434" height="504" viewBox="0, 0, 434, 504">
  <defs>
    <linearGradient id="Gradient_1" gradientUnits="userSpaceOnUse" x1="376.525" y1="453.616" x2="411.13" y2="453.616">
      <stop offset="0" stop-color="#FFFFFE"/>
      <stop offset="1" stop-color="#1B1A19"/>
    </linearGradient>
    <linearGradient id="Gradient_2" gradientUnits="userSpaceOnUse" x1="26.785" y1="342.87" x2="366.929" y2="342.87">
      <stop offset="0" stop-color="#EFD8C3"/>
      <stop offset="1" stop-color="#A5816D"/>
    </linearGradient>
    <linearGradient id="Gradient_3" gradientUnits="userSpaceOnUse" x1="239.148" y1="310.635" x2="380.448" y2="310.635">
      <stop offset="0" stop-color="#EFD8C3"/>
      <stop offset="1" stop-color="#A5816D"/>
    </linearGradient>
    <linearGradient id="Gradient_4" gradientUnits="userSpaceOnUse" x1="38.294" y1="62.357" x2="72.06" y2="62.357">
      <stop offset="0" stop-color="#FFFFFE"/>
      <stop offset="1" stop-color="#1B1A19"/>
    </linearGradient>
    <linearGradient id="Gradient_5" gradientUnits="userSpaceOnUse" x1="26.138" y1="51.351" x2="65.765" y2="51.351">
      <stop offset="0" stop-color="#FFFFFE"/>
      <stop offset="1" stop-color="#1B1A19"/>
    </linearGradient>
    <linearGradient id="Gradient_6" gradientUnits="userSpaceOnUse" x1="21.23" y1="41.017" x2="54.04" y2="41.017">
      <stop offset="0" stop-color="#FFFFFE"/>
      <stop offset="1" stop-color="#1B1A19"/>
    </linearGradient>
  </defs>
  <g id="Layer_1">
    <path d="M400.258,436.078 L411.111,464.65 C406.251,465.064 404.037,468.34 403.029,471.148 L376.525,452.597 L376.525,452.586 C377.939,452.004 377.258,452.353 378.567,451.537 C379.395,450.907 380.322,449.854 380.754,448.162 C386.226,448.918 389.475,447.073 391.284,445.264 C393.462,443.095 394.344,440.296 394.524,437.983 C394.668,437.992 394.803,438.001 394.947,438.001 C396.504,438.001 398.097,437.515 399.591,436.552 C400.034,436.245 399.813,436.403 400.253,436.078 L400.258,436.078 z" fill="url(#Gradient_1)"/>
    <path d="M136.636,207.47 C140.897,207.629 145.177,207.991 149.337,208.96 C154.665,215.926 165.915,230.11 170.595,232.117 C174.69,233.872 229.995,262.672 234.36,265.57 C237.042,267.361 253.971,281.905 264.087,290.59 C269.892,295.585 274.482,299.527 275.751,300.535 C276.732,301.327 279.738,304.018 283.212,307.132 C292.275,315.241 305.973,327.508 312.516,331.945 C322.488,338.713 356.022,365.146 358.974,369.7 C362.611,375.619 365.075,382.183 366.929,388.854 L366.929,389.052 C361.129,382.588 346.798,375.997 338.22,375.001 C332.541,374.695 323.037,374.2 315.27,386.035 C307.152,398.419 320.589,413.782 326.394,417.976 C330.102,420.649 336.915,422.989 344.394,422.989 L344.529,422.989 C341.631,423.763 339.066,424.249 337.311,424.474 L337.266,424.483 C331.146,424.204 289.431,402.064 272.286,386.881 C255.33,371.869 232.002,356.623 212.859,348.037 C200.115,342.322 191.808,336.382 183.771,330.631 C180.324,328.165 177.057,325.825 173.547,323.584 C167.274,319.876 160.965,315.835 154.71,311.839 C148.455,307.825 142.209,303.766 135.99,299.68 C129.762,295.594 123.561,291.481 117.378,287.323 C111.204,283.165 105.039,278.98 98.982,274.651 C104.652,279.493 110.439,284.191 116.235,288.88 C119.565,291.571 122.931,294.217 126.288,296.881 C125.01,296.53 123.732,296.17 122.436,295.837 C118.458,294.811 114.435,293.902 110.385,293.182 C106.326,292.48 102.222,292.012 98.1,291.931 C94.005,291.886 89.811,292.192 85.977,293.677 C89.91,292.498 94.041,292.534 98.055,292.894 C102.078,293.29 106.056,294.064 109.98,295.072 C113.895,296.089 117.774,297.286 121.608,298.609 C123.525,299.266 125.433,299.95 127.341,300.652 L130.23,301.705 C131.22,302.056 132.138,302.416 133.407,302.722 L133.434,302.569 C133.533,302.65 133.632,302.731 133.74,302.812 C139.599,307.42 145.476,312.01 151.389,316.573 C157.32,321.127 163.188,325.645 169.398,330.073 C172.737,332.215 175.923,334.492 179.289,336.904 C187.245,342.592 196.263,349.045 209.709,355.075 C228.204,363.364 250.758,378.106 267.174,392.65 C278.892,403.027 311.562,423.025 328.887,429.82 C326.016,435.832 322.317,449.674 326.277,453.049 C328.293,454.759 335.781,458.368 342.603,460.663 C342.009,460.69 341.433,460.699 340.884,460.708 C337.725,460.042 317.205,455.677 310.203,453.103 C285.876,444.148 245.196,431.386 213.381,424.528 C186.39,418.723 167.58,407.617 156.339,400.984 C153.936,399.562 151.848,398.329 150.147,397.438 L147.744,396.178 L145.233,394.747 L140.193,391.795 L130.131,385.702 L110.061,373.336 L108.675,372.472 L108.693,372.427 L108.459,372.337 L90.018,360.898 C83.313,356.785 76.68,352.564 69.84,348.667 C76.329,353.104 82.593,357.847 88.938,362.491 L97.191,368.602 C96.12,368.368 95.031,368.17 93.924,368.044 C91.332,367.756 88.713,367.855 86.193,368.35 C83.682,368.836 81.279,369.691 78.993,370.744 C81.396,369.988 83.853,369.457 86.319,369.304 C88.785,369.151 91.242,369.367 93.6,369.943 C98.325,371.113 102.672,373.48 107.028,375.901 L107.037,375.883 L107.901,376.522 L126.918,390.508 L136.503,397.438 L141.372,400.858 L143.865,402.55 C144.72,403.117 145.656,403.693 146.556,404.251 C148.095,405.07 150.102,406.249 152.424,407.617 C159.984,412.081 172.089,419.218 188.235,425.194 C186.624,430.09 185.229,435.076 184.338,440.161 C183.861,442.915 183.519,445.705 183.483,448.504 C183.465,451.285 183.717,454.129 184.716,456.721 C184.023,454.03 184.113,451.258 184.437,448.567 C184.797,445.867 185.445,443.212 186.21,440.602 C187.659,435.742 189.594,431.044 191.727,426.445 C194.724,427.489 197.856,428.479 201.105,429.406 C201.141,431.224 201.123,433.087 201.06,434.932 C200.97,437.173 200.817,439.414 200.565,441.655 C200.052,446.119 199.242,450.583 197.478,454.786 C199.827,450.871 201.303,446.443 202.464,442.006 C203.04,439.774 203.517,437.515 203.931,435.247 C204.219,433.627 204.471,432.007 204.687,430.36 C206.991,430.963 209.331,431.539 211.761,432.07 C243.207,438.838 283.455,451.465 307.548,460.33 C310.635,461.473 315.927,462.877 321.336,464.2 C321.12,464.263 320.913,464.317 320.697,464.389 C311.202,467.179 298.395,470.941 284.787,472.903 C278.109,471.094 262.656,471.076 244.872,471.049 C228.186,471.031 209.277,471.013 201.096,469.177 C188.847,466.423 177.984,460.942 164.241,454.012 C159.21,451.474 154.008,448.855 148.086,446.02 C137.34,441.592 126.522,437.398 115.632,433.411 C110.187,431.431 104.715,429.505 99.207,427.687 C93.708,425.878 88.173,424.114 82.521,422.836 C87.993,424.726 93.258,427.084 98.505,429.478 C103.752,431.881 108.945,434.392 114.111,436.957 C124.443,442.096 134.667,447.433 144.756,452.968 C150.606,455.767 155.772,458.377 160.776,460.897 C174.996,468.07 186.228,473.731 199.404,476.692 C201.249,477.106 203.499,477.43 206.055,477.7 C155.016,478.87 87.516,477.718 73.854,468.889 C58.104,458.719 58.626,446.524 59.004,437.614 C59.148,434.392 59.265,431.611 58.635,429.235 C56.448,421 51.354,412.288 46.854,404.611 C42.498,397.159 38.376,390.13 38.043,385.621 C37.548,379.114 41.742,351.385 42.75,347.353 C43.443,344.581 41.859,341.656 37.161,333.601 C32.994,326.446 25.236,313.126 27.171,308.374 C30.537,300.094 40.743,286.009 49.752,273.589 C55.656,265.435 61.245,257.731 64.638,252.07 C66.69,248.641 68.085,244.609 69.561,240.334 C73.476,228.967 77.535,217.222 94.545,212.11 C104.022,209.152 113.889,208.043 123.754,207.47 L136.636,207.47 z M302.238,419.389 C301.419,421.531 300.654,423.646 299.898,425.761 C299.106,427.858 298.368,429.964 297.495,432.007 C297.09,433.042 296.649,434.059 296.181,435.058 L295.497,436.57 C295.236,437.056 294.984,437.551 294.741,438.055 C293.697,439.999 292.572,441.898 291.159,443.716 C293.112,442.492 294.705,440.719 296.028,438.829 C297.387,436.939 298.377,434.842 299.277,432.736 C300.141,430.603 300.825,428.407 301.329,426.184 C301.833,423.952 302.202,421.684 302.238,419.389 z M294.048,414.331 C292.5,416.311 290.871,418.246 289.476,420.343 C288.036,422.413 286.74,424.591 285.57,426.841 C284.436,429.109 283.41,431.458 282.753,433.951 C282.429,435.202 282.204,436.48 282.159,437.785 C282.141,439.081 282.303,440.449 282.969,441.547 C282.717,440.296 282.834,439.081 283.104,437.893 C283.356,436.714 283.761,435.553 284.184,434.41 C285.093,432.142 286.146,429.91 287.289,427.723 C288.396,425.509 289.593,423.331 290.754,421.117 L292.5,417.787 C293.031,416.653 293.679,415.564 294.048,414.331 z M194.589,364.723 C192.735,367.405 191.295,370.24 189.918,373.084 C188.55,375.928 187.299,378.799 186.093,381.679 L182.547,390.292 C181.332,393.163 180.216,395.998 178.533,398.761 C179.946,397.96 181.215,396.826 182.286,395.611 C182.844,394.999 183.366,394.369 183.834,393.703 C184.329,393.055 184.806,392.389 185.229,391.705 C186.975,388.987 188.424,386.107 189.648,383.164 C190.872,380.212 191.898,377.197 192.744,374.137 C193.572,371.059 194.229,367.954 194.589,364.723 z M190.413,348.667 C185.391,349.405 180.387,351.574 176.436,355.138 C174.447,356.875 172.692,358.918 171.243,361.15 C169.812,363.391 168.66,365.785 167.751,368.26 C165.96,373.219 165.186,378.439 165.159,383.596 C165.123,388.744 165.753,393.892 167.292,398.761 C167.337,393.667 167.562,388.69 168.147,383.785 C168.777,378.898 169.722,374.092 171.369,369.565 C172.188,367.315 173.187,365.137 174.366,363.067 C175.536,360.979 176.976,359.089 178.542,357.28 C181.737,353.689 185.859,350.944 190.413,348.667 z M304.884,343.456 C302.283,346.435 299.943,349.594 297.603,352.762 C295.263,355.921 293.004,359.134 290.763,362.356 C288.54,365.596 286.326,368.836 284.166,372.121 L280.908,377.026 C280.377,377.845 279.819,378.655 279.27,379.465 C278.991,379.87 278.703,380.266 278.415,380.653 C278.109,381.031 277.839,381.463 277.434,381.742 C278.316,381.274 278.982,380.491 279.675,379.798 C280.368,379.078 281.007,378.331 281.664,377.593 C282.942,376.081 284.184,374.551 285.381,372.994 C287.802,369.88 290.088,366.676 292.347,363.454 C294.57,360.205 296.757,356.938 298.845,353.608 C300.951,350.278 302.949,346.894 304.884,343.456 z M294.048,341.539 C292.896,342.259 292.005,343.285 291.069,344.221 C290.16,345.193 289.269,346.183 288.423,347.2 C286.704,349.225 285.093,351.322 283.518,353.455 C281.97,355.597 280.449,357.766 279.036,359.998 C277.605,362.23 276.228,364.498 275.022,366.892 C276.885,364.966 278.586,362.941 280.242,360.88 C281.916,358.819 283.5,356.713 285.075,354.589 C286.614,352.447 288.153,350.305 289.62,348.109 L291.807,344.806 C292.545,343.708 293.202,342.556 294.048,341.539 z M230.553,278.665 C229.671,284.155 228.015,289.339 226.062,294.388 C224.073,299.419 221.67,304.243 218.835,308.77 C215.964,313.279 212.643,317.482 208.638,320.965 C204.642,324.457 199.935,327.157 194.589,328.759 C200.187,328.75 205.812,326.644 210.474,323.332 C215.181,320.011 219.042,315.628 222.084,310.831 C225.126,306.025 227.385,300.769 228.915,295.342 C230.4,289.933 231.282,284.227 230.553,278.665 z M240.831,303.712 C239.607,306.268 237.987,308.275 236.277,310.237 C234.558,312.19 232.713,314.035 230.823,315.862 C228.915,317.68 226.971,319.48 225.009,321.298 L222.048,324.061 C221.058,325.006 220.077,325.933 218.997,326.833 C220.437,326.707 221.769,326.158 223.065,325.636 C224.37,325.096 225.603,324.439 226.809,323.719 C229.203,322.279 231.453,320.587 233.487,318.643 C235.512,316.69 237.339,314.476 238.761,311.974 C240.138,309.499 241.2,306.583 240.831,303.712 z M222.201,270.637 C217.035,270.655 211.779,271.456 206.829,273.481 C201.879,275.443 197.307,278.872 194.184,283.39 C191.025,287.881 189.324,293.182 188.685,298.402 C188.019,303.649 188.253,308.878 189.126,313.99 C189.846,308.851 190.449,303.784 191.628,298.942 C192.825,294.109 194.571,289.51 197.334,285.604 C200.052,281.68 203.796,278.548 208.125,276.19 C212.463,273.841 217.269,272.239 222.201,270.637 z" fill="url(#Gradient_2)"/>
    <path d="M373.91,411.563 L393.642,433.878 C394.843,434.378 396.02,434.066 396.821,433.69 C397.511,433.364 398.045,432.946 398.43,432.558 L375.506,406.263 C375.154,408.058 374.649,409.808 373.946,411.485 L373.91,411.563" fill="#F1AA49"/>
    <path d="M376.238,448.468 C376.594,448.196 377.047,447.703 377.126,446.514 L359.059,425.767 C357.255,426.676 355.427,427.466 353.636,428.147 L372.345,449.198 C373.806,449.293 375.328,449.164 376.238,448.468" fill="#F1AA49"/>
    <path d="M241.36,238.123 C243.826,238.21 242.218,238.158 246.186,238.255 C256.671,238.489 268.551,238.759 274.275,243.178 C300.231,263.239 322.542,274.84 340.578,277.657 C348.201,278.845 356.238,286.81 361.557,292.084 C362.835,293.353 363.942,294.442 364.914,295.333 C367.515,297.682 367.767,305.773 367.983,312.91 C368.064,315.718 368.154,318.625 368.37,321.424 C368.406,321.856 368.91,328.435 369.414,333.754 C368.217,333.358 366.975,333.187 365.796,333.25 C363.294,333.385 361.44,334.483 360.99,336.058 C357.372,341.386 362.466,350.197 368.478,356.704 C371.565,360.043 375.624,363.436 378.684,365.848 C379.53,368.251 380.187,370.078 380.493,370.861 C380.727,372.265 379.917,377.602 377.001,380.833 C375.921,382.039 374.724,382.768 373.329,383.074 C370.899,375.262 367.47,368.647 365.436,365.515 C361.206,358.981 324.306,330.631 316.845,325.573 C316.458,325.303 316.035,325.006 315.594,324.682 C313.452,321.514 311.688,318.058 310.563,314.35 C309.429,310.633 308.826,306.682 309.231,302.749 C308.511,306.646 308.781,310.696 309.627,314.593 C310.041,316.501 310.626,318.382 311.346,320.2 C308.178,316.6 303.039,310.741 296.379,303.154 C296.937,301.768 297.558,300.4 298.233,299.059 C300.123,295.342 302.337,291.742 304.884,288.376 C301.851,291.328 299.088,294.568 296.586,298.06 C295.884,299.05 295.218,300.058 294.57,301.093 C276.144,280.104 257.72,259.113 239.295,238.123 L241.36,238.123 z" fill="url(#Gradient_3)"/>
    <path d="M337.845,432.135 C337.809,432.678 337.749,433.22 337.652,433.75 C337.307,435.628 336.608,437.416 335.616,439.01 C334.625,440.6 333.327,442 331.781,443.029 C330.814,443.676 329.743,444.142 328.635,444.442 C328.235,447.239 328.206,449.487 328.784,450.122 C331.907,452.776 348.706,459.644 352.502,458.844 C356.011,458.117 361.521,456.241 364.088,451.51 L345.569,430.671 C341.544,431.686 338.651,432.075 338.29,432.121 C338.157,432.138 337.992,432.128 337.845,432.135" fill="#EFD8C3"/>
    <path d="M49.752,80.789 L174.486,225.426 C177.094,226.67 184.108,230.247 192.606,234.646 L53.277,74.667 C51.606,77.061 50.45,79.281 49.752,80.789" fill="#F1AA49"/>
    <path d="M362.827,336.652 L362.786,336.858 L362.663,337.027 C359.511,341.399 364.589,349.655 369.896,355.397 C372.132,357.817 374.939,360.299 377.48,362.393 C374.504,353.796 370.485,341.829 370.149,340.222 C370.013,339.567 369.823,337.945 369.619,335.915 C368.435,335.355 367.122,335.109 365.898,335.177 C364.272,335.265 362.98,335.886 362.827,336.652" fill="#EFD8C3"/>
    <path d="M59.049,68.658 C57.85,69.627 56.759,70.633 55.753,71.642 L201.938,239.494 C211.825,244.65 222.231,250.134 229.484,254.046 L63.067,65.842 C61.563,66.745 60.216,67.716 59.049,68.658" fill="#F1AA49"/>
    <path d="M66.598,64.02 L240.132,260.271 C244.654,263.778 255.978,273.472 269.104,284.747 C270.32,285.793 271.496,286.802 272.609,287.757 C212.134,218.853 95.77,86.26 74.564,61.995 C71.673,62.211 68.998,62.978 66.598,64.02" fill="#F1AA49"/>
    <path d="M364.219,391.946 C363.006,388.069 344.121,379.167 338.021,378.847 C337.056,378.796 336.028,378.741 334.955,378.741 C334.421,378.741 333.874,378.76 333.317,378.793 C333.991,380.916 334.257,383.187 334.149,385.452 C334.023,388.399 333.148,391.398 331.427,393.912 C329.696,396.425 327.153,398.289 324.409,399.375 C322.314,400.291 320.079,400.651 317.862,400.779 C320.323,407.109 325.758,412.764 328.652,414.856 C334.206,418.866 347.293,421.497 357.434,416.008 C367.471,410.573 365.734,396.796 364.219,391.946" fill="#EFD8C3"/>
    <path d="M329.84,392.822 C331.371,390.637 332.24,388.018 332.653,385.307 C332.961,383.193 333.011,381.022 332.82,378.827 C328.277,379.206 323.148,381.057 318.497,388.148 C316.001,391.952 316.214,396.257 317.688,400.317 C319.823,399.705 321.906,399.074 323.781,398.017 C326.195,396.736 328.352,395.038 329.84,392.822" fill="#EFD8C3"/>
    <path d="M67.145,48.066 C68.782,50.128 70.423,52.188 72.06,54.25 L72.06,54.28 C58.808,55.872 49.001,65.13 43.191,76.633 L38.313,70.648 C42.95,58.786 54.906,50.538 67.047,48.066 L67.145,48.066 z" fill="url(#Gradient_4)"/>
    <path d="M334.778,438.535 C335.799,436.518 336.321,434.242 336.262,432.04 C335.194,431.885 333.92,431.565 332.479,431.108 C330.901,434.006 329.324,439.776 328.664,444.241 C329.689,443.852 330.653,443.319 331.497,442.64 C332.886,441.528 333.987,440.098 334.778,438.535" fill="#EFD8C3"/>
    <path d="M54.882,33.73 C55.125,33.73 55.368,33.73 55.62,33.739 C59.184,38.131 62.658,42.46 65.754,46.33 C53.492,49.049 42.405,57.576 36.956,68.978 L36.95,68.978 L26.137,55.693 L26.137,55.656 C30.73,43.458 41.579,34.078 54.882,33.73 z" fill="url(#Gradient_5)"/>
    <path d="M362.503,423.855 L380.167,444.138 C383.891,444.904 386.722,444.377 388.563,442.538 C390.381,440.727 390.873,437.951 390.675,436.341 L371.944,415.158 C369.551,418.728 366.192,421.586 362.503,423.855" fill="#F1AA49"/>
    <path d="M49.15,28.03 C50.105,28.054 49.466,28.029 51.066,28.159 C53.058,30.579 52.067,29.37 54.041,31.788 L54.041,31.805 C40.43,32.38 30.024,41.982 24.741,53.98 L21.24,49.687 C21.672,46.375 24.75,40.111 30.303,35.143 C35.027,30.931 41.006,28.212 47.375,28.03 L49.15,28.03 z" fill="url(#Gradient_6)"/>
    <path d="M191.63,298.942 C192.822,294.111 194.574,289.512 197.332,285.606 C200.057,281.684 203.8,278.547 208.124,276.192 C212.464,273.837 217.265,272.239 222.203,270.637 C217.035,270.654 211.782,271.458 206.829,273.479 C201.876,275.44 197.309,278.876 194.182,283.387 C191.024,287.882 189.32,293.181 188.682,298.405 C188.014,303.649 188.259,308.881 189.13,313.986 C189.85,308.854 190.454,303.788 191.63,298.942 M222.047,324.057 C221.059,325.003 220.08,325.929 218.993,326.83 C220.432,326.705 221.768,326.159 223.067,325.639 C224.368,325.093 225.607,324.44 226.809,323.722 C229.207,322.282 231.45,320.585 233.49,318.646 C235.513,316.689 237.342,314.476 238.76,311.972 C240.139,309.495 241.204,306.582 240.827,303.71 C239.607,306.264 237.987,308.275 236.272,310.239 C234.554,312.191 232.709,314.031 230.824,315.865 C228.918,317.681 226.971,319.48 225.006,321.3 L222.047,324.057 z M173.544,323.583 C167.277,319.881 160.964,315.838 154.711,311.844 C148.452,307.825 142.211,303.766 135.987,299.683 C129.765,295.596 123.557,291.484 117.379,287.326 C111.204,283.164 105.043,278.983 98.979,274.651 C104.648,279.49 110.435,284.193 116.234,288.877 C119.568,291.565 122.936,294.215 126.288,296.88 C125.007,296.528 123.727,296.169 122.436,295.839 C118.457,294.813 114.438,293.901 110.384,293.183 C106.328,292.482 102.219,292.011 98.102,291.934 C94.004,291.886 89.807,292.189 85.977,293.676 C89.908,292.498 94.039,292.533 98.053,292.896 C102.078,293.289 106.06,294.067 109.981,295.067 C113.902,296.085 117.77,297.289 121.605,298.607 C123.523,299.264 125.431,299.953 127.344,300.654 L130.229,301.709 C131.219,302.054 132.142,302.411 133.405,302.722 L133.432,302.567 C133.532,302.646 133.634,302.73 133.735,302.81 C139.596,307.423 145.474,312.013 151.386,316.568 C157.32,321.124 163.188,325.647 169.396,330.076 L173.544,323.583 z M208.638,320.966 C204.638,324.454 199.937,327.156 194.588,328.757 C200.187,328.756 205.815,326.647 210.479,323.328 C215.18,320.016 219.043,315.632 222.087,310.833 C225.13,306.02 227.385,300.766 228.913,295.34 C230.404,289.929 231.282,284.227 230.552,278.665 C229.672,284.156 228.016,289.34 226.062,294.385 C224.076,299.415 221.669,304.246 218.831,308.774 C215.966,313.276 212.642,317.478 208.638,320.966 M284.167,372.117 L280.911,377.022 C280.375,377.844 279.823,378.654 279.267,379.461 C278.992,379.868 278.704,380.264 278.412,380.655 C278.109,381.035 277.842,381.463 277.433,381.739 C278.318,381.272 278.981,380.489 279.679,379.796 C280.365,379.081 281.011,378.335 281.661,377.589 C282.938,376.084 284.182,374.552 285.384,372.99 C287.804,369.88 290.091,366.677 292.346,363.452 C294.569,360.207 296.755,356.939 298.843,353.605 C300.951,350.282 302.948,346.891 304.887,343.454 C302.287,346.436 299.939,349.598 297.601,352.758 C295.261,355.918 293.008,359.138 290.761,362.358 C288.542,365.598 286.329,368.84 284.167,372.117 M297.497,432.005 C297.094,433.04 296.648,434.058 296.185,435.062 L295.496,436.573 C295.233,437.058 294.985,437.552 294.743,438.051 C293.701,440.003 292.568,441.894 291.16,443.712 C293.114,442.489 294.7,440.72 296.028,438.831 C297.383,436.941 298.373,434.846 299.279,432.734 C300.144,430.602 300.828,428.411 301.331,426.18 C301.836,423.951 302.201,421.687 302.238,419.388 C301.42,421.528 300.658,423.646 299.895,425.757 C299.11,427.857 298.366,429.962 297.497,432.005 M190.414,348.665 C185.387,349.403 180.391,351.576 176.438,355.134 C174.445,356.878 172.688,358.917 171.247,361.151 C169.813,363.386 168.658,365.785 167.748,368.257 C165.959,373.219 165.19,378.442 165.155,383.594 C165.124,388.744 165.757,393.888 167.294,398.757 C167.336,393.666 167.563,388.685 168.146,383.783 C168.776,378.897 169.724,374.089 171.369,369.569 C172.19,367.313 173.188,365.135 174.362,363.063 C175.532,360.982 176.975,359.085 178.546,357.278 C181.739,353.691 185.854,350.947 190.414,348.665 M411.116,464.646 L400.258,436.07 C400.035,436.244 399.811,436.406 399.59,436.549 C398.095,437.516 396.501,438.005 394.949,438.005 C394.807,438.005 394.665,437.987 394.522,437.979 C394.343,440.295 393.464,443.093 391.285,445.267 C389.472,447.074 386.226,448.918 380.754,448.161 C380.326,449.855 379.396,450.906 378.57,451.535 C377.948,452.009 377.247,452.347 376.512,452.587 L403.029,471.15 C404.038,468.343 406.251,465.067 411.116,464.646 M376.238,448.467 C376.594,448.196 377.047,447.703 377.127,446.514 L359.059,425.767 C357.255,426.676 355.426,427.466 353.636,428.147 L372.345,449.198 C373.806,449.293 375.328,449.164 376.238,448.467 M364.088,451.51 L345.569,430.672 C341.544,431.686 338.651,432.075 338.29,432.121 C338.157,432.138 337.992,432.128 337.845,432.135 C337.809,432.678 337.749,433.22 337.652,433.75 C337.307,435.628 336.608,437.416 335.616,439.009 C334.625,440.6 333.327,442 331.781,443.029 C330.814,443.676 329.743,444.142 328.635,444.442 C328.235,447.239 328.206,449.487 328.784,450.122 C331.907,452.776 348.706,459.644 352.502,458.844 C356.013,458.116 361.521,456.241 364.088,451.51 M332.479,431.108 C330.902,434.006 329.324,439.776 328.664,444.241 C329.689,443.852 330.653,443.319 331.497,442.64 C332.886,441.528 333.986,440.098 334.778,438.535 C335.799,436.518 336.321,434.242 336.262,432.04 C335.194,431.885 333.92,431.565 332.479,431.108 M342.601,460.664 C335.781,458.369 328.293,454.761 326.277,453.048 C322.313,449.677 326.012,435.832 328.888,429.822 C311.565,423.025 278.889,403.027 267.172,392.651 C250.757,378.11 228.2,363.36 209.709,355.071 C196.259,349.042 187.243,342.591 179.291,336.902 C175.922,334.49 172.738,332.213 169.396,330.076 L173.544,323.583 C177.059,325.827 180.32,328.162 183.774,330.634 C191.808,336.382 200.114,342.325 212.862,348.039 C232.007,356.62 255.33,371.868 272.28,386.882 C289.427,402.067 331.147,424.203 337.269,424.483 L337.312,424.478 C339.069,424.249 341.631,423.764 344.529,422.989 L344.39,422.992 C336.915,422.993 330.099,420.653 326.396,417.98 C320.585,413.782 307.152,398.415 315.274,386.034 C323.037,374.199 332.545,374.695 338.223,374.997 C343.698,375.286 362.402,382.799 367.012,389.145 C364.802,380.28 360.635,372.276 358.97,369.704 C356.021,365.147 322.487,338.711 312.518,331.944 C305.973,327.504 292.278,315.241 283.214,307.128 C279.737,304.016 276.734,301.327 275.749,300.538 C274.482,299.526 269.894,295.584 264.083,290.593 C253.969,281.905 237.04,267.365 234.356,265.576 C229.997,262.668 174.69,233.869 170.593,232.114 C165.912,230.108 154.666,215.929 149.333,208.962 C143.417,207.335 118.031,205.068 94.549,212.114 C77.535,217.219 73.479,228.968 69.558,240.334 C68.082,244.603 66.69,248.636 64.638,252.067 C61.244,257.731 55.66,265.436 49.747,273.593 C40.744,286.015 30.54,300.093 27.17,308.373 C25.236,313.129 32.996,326.449 37.166,333.605 C41.858,341.657 43.444,344.583 42.752,347.352 C41.744,351.387 37.547,379.116 38.04,385.621 C38.382,390.126 42.496,397.159 46.854,404.607 C51.351,412.291 56.448,421.003 58.634,429.238 C59.264,431.612 59.145,434.394 59.008,437.613 C58.628,446.522 58.108,458.721 73.858,468.892 C87.52,477.716 155.018,478.867 206.052,477.695 C203.501,477.433 201.245,477.105 199.402,476.692 C186.225,473.729 174.993,468.066 160.774,460.894 C155.777,458.375 150.608,455.769 144.759,452.968 L147.468,447.313 L144.759,452.967 C134.669,447.436 124.44,442.095 114.113,436.956 C108.946,434.394 103.75,431.884 98.508,429.476 C93.259,427.08 87.989,424.728 82.524,422.84 C88.171,424.11 93.709,425.876 99.211,427.684 C104.716,429.503 110.184,431.432 115.633,433.414 C126.522,437.398 137.336,441.592 148.086,446.017 C154.009,448.851 159.212,451.476 164.243,454.014 C177.987,460.944 188.844,466.419 201.093,469.173 C209.273,471.012 228.188,471.033 244.875,471.053 C262.653,471.072 278.105,471.093 284.787,472.907 C298.392,470.937 311.202,467.176 320.694,464.386 C320.918,464.319 321.116,464.261 321.334,464.197 C315.926,462.879 310.634,461.471 307.544,460.334 C283.458,451.466 243.211,438.838 211.759,432.067 C209.334,431.544 206.991,430.964 204.685,430.363 C204.468,432.005 204.222,433.626 203.931,435.247 C203.513,437.517 203.04,439.773 202.461,442.003 C201.301,446.446 199.824,450.872 197.479,454.79 C199.245,450.585 200.051,446.114 200.566,441.652 C200.82,439.418 200.967,437.172 201.058,434.929 C201.127,433.087 201.143,431.225 201.107,429.401 C197.853,428.477 194.726,427.485 191.727,426.446 C189.591,431.048 187.663,435.743 186.215,440.601 C185.443,443.211 184.8,445.864 184.44,448.567 C184.11,451.261 184.025,454.032 184.714,456.716 C183.715,454.129 183.461,451.286 183.479,448.5 C183.521,445.702 183.863,442.918 184.338,440.162 C185.229,435.075 186.625,430.09 188.231,425.193 C172.087,419.216 159.986,412.084 152.426,407.621 C150.101,406.249 148.095,405.065 146.554,404.254 L146.556,404.254 C145.657,403.689 144.722,403.119 143.862,402.552 L141.376,400.859 L136.506,397.437 L126.919,390.507 L107.902,376.521 L107.04,375.883 L107.029,375.903 C102.67,373.48 98.328,371.109 93.597,369.942 C91.238,369.371 88.785,369.146 86.321,369.306 C83.854,369.46 81.393,369.986 78.991,370.74 C81.275,369.689 83.679,368.836 86.197,368.351 C88.713,367.859 91.337,367.757 93.928,368.042 C95.032,368.171 96.119,368.366 97.197,368.601 L88.94,362.491 C82.597,357.848 76.328,353.101 69.841,348.665 C76.676,352.562 83.316,356.784 90.019,360.897 L108.458,372.335 L108.695,372.43 L108.677,372.469 L110.065,373.331 L130.13,385.702 L140.192,391.791 L145.232,394.748 L147.744,396.174 L150.146,397.436 L150.146,397.433 C151.851,398.332 153.933,399.562 156.343,400.984 C167.579,407.618 186.389,418.72 213.38,424.532 C245.198,431.383 285.875,444.144 310.206,453.101 C317.204,455.678 337.728,460.046 340.884,460.711 C341.436,460.701 342.008,460.686 342.601,460.664 M174.486,225.426 C177.093,226.67 184.108,230.247 192.607,234.646 L53.276,74.667 C51.606,77.061 50.45,79.281 49.753,80.789 L174.486,225.426 z M72.08,54.281 C70.64,52.462 68.968,50.357 67.129,48.05 C50.737,50.598 39.982,65.05 38.314,70.648 L43.186,76.63 C46.444,69.934 55.124,56.193 72.08,54.281 M36.957,68.981 C39.831,62.346 50.33,49.273 65.757,46.331 C62.66,42.455 59.186,38.129 55.619,33.735 C38.688,33.306 29.006,47.718 26.13,55.685 L36.957,68.981 z M24.738,53.976 C28.159,45.624 37.806,32.249 54.052,31.806 C53.059,30.586 52.064,29.367 51.07,28.155 C41.516,27.143 34.536,31.354 30.301,35.141 C24.748,40.109 21.67,46.371 21.241,49.682 L24.738,53.976 z M63.067,65.842 C61.563,66.745 60.216,67.715 59.049,68.658 C57.851,69.627 56.759,70.633 55.753,71.642 L201.938,239.493 C211.825,244.65 222.231,250.134 229.484,254.046 L63.067,65.842 z M74.562,61.995 C71.673,62.21 68.998,62.976 66.598,64.02 L240.132,260.271 C244.654,263.78 255.978,273.472 269.104,284.747 C270.32,285.791 271.496,286.802 272.609,287.757 C212.131,218.853 95.77,86.26 74.562,61.995 M239.233,238.046 C261.144,263.012 280.786,285.391 294.571,301.097 C295.215,300.06 295.888,299.047 296.586,298.06 C299.087,294.572 301.853,291.325 304.887,288.378 C302.339,291.746 300.122,295.342 298.236,299.055 C297.56,300.401 296.936,301.771 296.378,303.154 C303.038,310.743 308.179,316.599 311.344,320.204 C310.628,318.378 310.043,316.505 309.626,314.596 C308.784,310.694 308.511,306.641 309.235,302.747 C308.83,306.681 309.433,310.634 310.559,314.353 C311.688,318.054 313.449,321.514 315.591,324.683 C316.038,325.009 316.458,325.306 316.845,325.569 C324.311,330.635 361.207,358.977 365.439,365.518 C367.467,368.651 370.903,375.262 373.333,383.07 C374.724,382.767 375.92,382.038 377,380.838 C379.918,377.598 380.725,372.268 380.498,370.86 C380.188,370.082 379.526,368.248 378.682,365.843 C375.62,363.437 371.568,360.047 368.479,356.703 C362.462,350.192 357.374,341.385 360.99,336.058 C361.442,334.481 363.296,333.388 365.794,333.254 C366.973,333.185 368.219,333.359 369.411,333.753 C368.914,328.433 368.404,321.855 368.37,321.428 C368.153,318.625 368.064,315.718 367.979,312.907 C367.763,305.77 367.517,297.682 364.917,295.33 C363.94,294.445 362.836,293.351 361.558,292.085 C356.238,286.814 348.2,278.847 340.577,277.656 C322.539,274.837 300.232,263.237 274.274,243.182 C268.554,238.762 256.669,238.493 246.184,238.256 C243.796,238.201 241.461,238.148 239.233,238.046 M369.621,335.915 C368.435,335.354 367.122,335.109 365.898,335.177 C364.272,335.266 362.98,335.885 362.827,336.652 L362.786,336.858 L362.663,337.027 C359.511,341.399 364.589,349.654 369.896,355.398 C372.132,357.817 374.939,360.299 377.48,362.394 C374.504,353.797 370.486,341.828 370.149,340.222 C370.013,339.567 369.823,337.944 369.621,335.915 M362.503,423.855 L380.167,444.138 C383.891,444.904 386.722,444.377 388.563,442.538 C390.381,440.727 390.873,437.951 390.676,436.341 L371.944,415.158 C369.552,418.728 366.192,421.586 362.503,423.855 M323.781,398.017 C326.195,396.736 328.352,395.038 329.84,392.82 C331.371,390.638 332.24,388.018 332.653,385.307 C332.961,383.193 333.011,381.022 332.82,378.829 C328.277,379.206 323.148,381.057 318.497,388.148 C316.001,391.952 316.214,396.257 317.688,400.317 C319.823,399.705 321.906,399.074 323.781,398.017 M317.862,400.779 C320.323,407.109 325.758,412.765 328.652,414.856 C334.206,418.867 347.293,421.497 357.434,416.008 C367.471,410.573 365.734,396.796 364.219,391.946 C363.006,388.067 344.121,379.167 338.021,378.846 C337.056,378.795 336.028,378.741 334.955,378.741 C334.421,378.741 333.874,378.759 333.317,378.793 C333.991,380.916 334.257,383.188 334.149,385.452 C334.024,388.399 333.148,391.398 331.427,393.912 C329.696,396.424 327.153,398.288 324.409,399.376 C322.314,400.291 320.079,400.649 317.862,400.779 M373.946,411.484 L373.91,411.564 L393.642,433.878 C394.843,434.378 396.02,434.065 396.821,433.69 C397.511,433.364 398.045,432.946 398.43,432.558 L375.506,406.263 C375.154,408.058 374.649,409.808 373.946,411.484 M433.512,501.895 L370.56,457.826 C363.317,468.508 344.812,468.466 337.113,468.438 L336.195,468.437 C334.239,468.437 328.716,470.06 322.868,471.779 C308.63,475.965 287.181,482.276 265.938,481.93 C258.09,483.503 216.092,485.789 172.644,485.789 C128.135,485.789 82.102,483.391 69.677,475.366 C50.221,462.801 50.902,446.829 51.308,437.285 C51.414,434.802 51.515,432.456 51.184,431.214 C49.268,423.99 44.659,416.115 40.203,408.498 C35.174,399.904 30.831,392.483 30.355,386.204 C29.783,378.646 33.889,351.886 35.137,346.091 C34.647,344.591 32.365,340.673 30.507,337.484 C24.342,326.902 16.67,313.735 20.033,305.471 C23.752,296.324 33.796,282.47 43.508,269.07 C49.319,261.054 54.807,253.481 58.024,248.107 C59.668,245.363 60.933,241.698 62.271,237.819 C66.4,225.859 71.539,210.972 92.334,204.734 C111.068,199.111 130.616,199.011 142.547,200.19 L43.199,84.989 L42.678,85.16 L16.062,52.476 L15.414,50.744 C15.394,50.089 15.457,49.352 15.587,48.565 C11.188,43.314 -0.106,29.733 0.001,28.846 C2.088,11.508 21.676,-0.23 33.235,2.82 C36.387,3.651 47.519,17.946 50.878,22.337 C51.569,22.393 52.271,22.467 52.985,22.57 L54.807,23.597 C67.921,39.572 81.85,57.327 81.989,57.505 L81.546,58.273 C100.161,79.558 172.492,161.995 231.762,229.532 C235.394,230.294 240.72,230.424 246.358,230.55 C258.031,230.815 271.261,231.114 278.985,237.083 C303.905,256.336 325.027,267.425 341.768,270.041 C351.854,271.618 360.956,280.64 366.982,286.61 C368.194,287.812 369.24,288.85 370.088,289.616 C375.121,294.169 375.394,303.157 375.683,312.673 C375.766,315.396 375.851,318.21 376.054,320.833 C376.551,327.259 377.421,337.299 377.693,338.645 C378.203,340.772 386.513,365.262 387.676,368.055 C389.081,371.43 387.696,379.423 383.804,384.675 C381.534,387.736 378.578,389.733 375.21,390.539 C375.487,391.999 375.715,393.475 375.871,394.954 L406.021,429.537 L406.265,430.183 L433.512,501.895 z M294.05,414.33 C292.504,416.307 290.874,418.245 289.475,420.344 C288.037,422.417 286.744,424.592 285.571,426.844 C284.436,429.11 283.409,431.459 282.757,433.954 C282.429,435.198 282.205,436.484 282.162,437.786 C282.142,439.077 282.304,440.445 282.973,441.544 C282.714,440.297 282.837,439.079 283.102,437.896 C283.354,436.71 283.758,435.557 284.188,434.414 C285.09,432.143 286.147,429.914 287.286,427.719 C288.395,425.507 289.595,423.33 290.756,421.12 L292.497,417.79 C293.034,416.656 293.679,415.561 294.05,414.33 M186.094,381.673 L182.547,390.294 C181.333,393.158 180.22,395.993 178.533,398.757 C179.947,397.961 181.213,396.826 182.29,395.608 C182.844,395 183.368,394.368 183.838,393.708 C184.329,393.057 184.802,392.391 185.225,391.707 C186.974,388.982 188.421,386.107 189.647,383.162 C190.874,380.216 191.901,377.201 192.743,374.134 C193.575,371.061 194.231,367.95 194.588,364.72 C192.734,367.401 191.294,370.244 189.915,373.08 C188.551,375.925 187.298,378.795 186.094,381.673 M280.247,360.877 C278.589,362.939 276.881,364.964 275.025,366.888 C276.231,364.502 277.602,362.231 279.032,360.003 C280.451,357.766 281.972,355.6 283.52,353.453 C285.093,351.326 286.702,349.223 288.419,347.199 C289.271,346.183 290.157,345.192 291.065,344.218 C292.007,343.282 292.896,342.255 294.05,341.54 C293.2,342.557 292.541,343.705 291.808,344.805 L289.617,348.106 C288.153,350.305 286.616,352.448 285.072,354.589 C283.498,356.709 281.915,358.822 280.247,360.877" fill="#0B0B09"/>
    <path d="M8.462,21.12 C10.397,17.923 12.872,15.041 15.73,12.561 C18.596,10.107 21.852,7.93 25.779,6.982 C26.764,6.774 27.795,6.665 28.852,6.734 C29.392,6.781 29.889,6.842 30.465,7.015 C31.051,7.196 31.513,7.445 31.945,7.711 C33.655,8.781 35.063,10.014 36.424,11.32 C39.132,13.92 41.592,16.724 43.797,19.738 C40.913,17.375 38.12,14.944 35.257,12.661 C33.815,11.554 32.37,10.392 30.877,9.593 C30.51,9.396 30.135,9.23 29.835,9.141 C29.523,9.051 29.096,8.997 28.714,8.974 C27.921,8.94 27.095,9.038 26.274,9.229 C24.621,9.585 22.986,10.285 21.42,11.118 C19.834,11.933 18.334,12.938 16.849,13.978 C13.903,16.101 11.148,18.529 8.462,21.12" fill="#FFFFFE"/>
  </g>
</svg>
